<?xml version="1.0" standalone="no"?>
<!DOCTYPE svg PUBLIC "-//W3C//DTD SVG 20010904//EN"
 "http://www.w3.org/TR/2001/REC-SVG-20010904/DTD/svg10.dtd">
<svg version="1.0" xmlns="http://www.w3.org/2000/svg"
 width="640.000000pt" height="430.000000pt" viewBox="0 0 640.000000 430.000000"
 preserveAspectRatio="xMidYMid meet">

<g transform="translate(0.000000,430.000000) scale(0.100000,-0.100000)"
fill="#000000" stroke="none">
<path d="M0 2150 l0 -2150 3200 0 3200 0 0 2150 0 2150 -3200 0 -3200 0 0
-2150z m6150 -35 l0 -1845 -2960 0 -2960 0 0 1845 0 1845 2960 0 2960 0 0
-1845z"/>
<path d="M460 2115 l0 -1615 2730 0 2730 0 0 1615 0 1615 -2730 0 -2730 0 0
-1615z m4090 1285 c128 -16 265 -55 367 -106 177 -87 230 -195 152 -309 -36
-52 -61 -62 -96 -38 -46 33 -173 94 -248 120 -232 80 -507 81 -670 3 -81 -39
-157 -111 -188 -178 -18 -38 -22 -65 -22 -147 0 -87 3 -106 25 -149 46 -89
152 -162 320 -219 41 -14 161 -51 265 -82 223 -66 334 -112 449 -189 205 -137
296 -307 296 -555 -1 -230 -70 -388 -231 -526 -104 -89 -235 -147 -408 -182
-119 -24 -421 -23 -545 1 -376 73 -597 249 -520 412 18 38 77 92 110 100 16 4
39 -8 85 -45 80 -65 260 -155 364 -183 108 -28 367 -31 464 -5 140 38 255 129
309 244 24 52 27 69 27 173 0 104 -3 121 -27 172 -50 106 -149 189 -290 242
-36 14 -177 59 -314 101 -370 113 -508 188 -614 333 -75 102 -105 204 -105
357 0 132 22 227 72 315 99 171 289 290 536 335 89 16 323 19 437 5z m-2365
-11 c264 -32 441 -104 571 -233 108 -107 150 -206 161 -376 15 -254 -85 -443
-306 -572 l-43 -26 73 -37 c189 -95 308 -234 356 -415 23 -87 23 -270 0 -364
-28 -113 -73 -192 -158 -277 -186 -188 -502 -270 -979 -256 -107 3 -238 13
-290 22 -231 38 -318 70 -365 133 -20 27 -20 45 -23 1139 l-2 1112 31 35 c22
26 48 41 95 56 85 26 200 49 299 59 119 12 477 12 580 0z"/>
<path d="M1656 3115 c-60 -8 -119 -16 -132 -19 l-24 -6 0 -395 0 -395 294 0
c401 0 500 15 624 98 62 41 91 76 129 157 25 54 28 71 28 165 0 92 -3 112 -26
160 -46 98 -134 168 -258 206 -138 43 -413 55 -635 29z"/>
<path d="M1500 1592 c0 -411 1 -441 18 -446 9 -3 69 -12 132 -20 344 -45 630
-22 800 64 169 85 251 249 223 443 -27 191 -144 310 -362 369 -69 19 -110 22
-443 26 l-368 4 0 -440z"/>
</g>
</svg>
